<?xml version="1.0" encoding="UTF-8" standalone="no"?>
<!DOCTYPE svg PUBLIC "-//W3C//DTD SVG 1.1//EN" "http://www.w3.org/Graphics/SVG/1.1/DTD/svg11.dtd">
<svg width="100%" height="100%" viewBox="0 0 2048 2048" version="1.1" xmlns="http://www.w3.org/2000/svg" xmlns:xlink="http://www.w3.org/1999/xlink" xml:space="preserve" xmlns:serif="http://www.serif.com/" style="fill-rule:evenodd;clip-rule:evenodd;stroke-linejoin:round;stroke-miterlimit:2;">
    <g id="coin" transform="matrix(4.88968,0,0,4.88968,-1713.32,-400.941)">
        <g transform="matrix(1.04918,0,0,1.0449,178.601,-41.3)">
            <ellipse cx="384" cy="318.5" rx="61" ry="122.5" style="fill:white;"/>
            <path d="M384,185.561C367.504,185.561 351.762,195.557 339.395,213.767C323.338,237.41 312.604,275.489 312.604,318.5C312.604,361.511 323.338,399.59 339.395,423.233C351.762,441.443 367.504,451.439 384,451.439C400.496,451.439 416.238,441.443 428.605,423.233C444.662,399.59 455.396,361.511 455.396,318.5C455.396,275.489 444.662,237.41 428.605,213.767C416.238,195.557 400.496,185.561 384,185.561ZM384,196C417.667,196 445,250.89 445,318.5C445,386.11 417.667,441 384,441C350.333,441 323,386.11 323,318.5C323,250.89 350.333,196 384,196Z" style="fill:rgb(0,15,0);"/>
        </g>
        <g transform="matrix(1.04918,0,0,1.0449,135.237,-41.3)">
            <ellipse cx="384" cy="318.5" rx="61" ry="122.5" style="fill:white;"/>
        </g>
        <g transform="matrix(0.204512,0,0,0.409025,441.097,-14.8595)">
            <circle cx="389" cy="749" r="252" style="fill:rgb(0,190,105);"/>
        </g>
        <g transform="matrix(0.409025,0.110122,2.63596e-17,0.477196,523.397,-18.8911)">
            <path d="M51,568.975C51,565.677 48.087,563 44.5,563L31.5,563C27.913,563 25,565.677 25,568.975L25,917.025C25,920.323 27.913,923 31.5,923L44.5,923C48.087,923 51,920.323 51,917.025L51,568.975Z" style="fill:rgb(0,15,0);"/>
        </g>
        <g transform="matrix(0.186444,-0.364936,0.130079,0.185483,413.775,190.495)">
            <path d="M51,576.304C51,568.961 48.087,563 44.5,563L31.5,563C27.913,563 25,568.961 25,576.304L25,909.696C25,917.039 27.913,923 31.5,923L44.5,923C48.087,923 51,917.039 51,909.696L51,576.304Z" style="fill:rgb(0,15,0);"/>
        </g>
        <g transform="matrix(1.04918,0,0,1.0449,135.237,-41.3)">
            <path d="M384,185.561C367.504,185.561 351.762,195.557 339.395,213.767C323.338,237.41 312.604,275.489 312.604,318.5C312.604,361.511 323.338,399.59 339.395,423.233C351.762,441.443 367.504,451.439 384,451.439C400.496,451.439 416.238,441.443 428.605,423.233C444.662,399.59 455.396,361.511 455.396,318.5C455.396,275.489 444.662,237.41 428.605,213.767C416.238,195.557 400.496,185.561 384,185.561ZM384,196C417.667,196 445,250.89 445,318.5C445,386.11 417.667,441 384,441C350.333,441 323,386.11 323,318.5C323,250.89 350.333,196 384,196Z" style="fill:rgb(0,15,0);"/>
        </g>
        <g transform="matrix(1,0,0,1,257,0.25)">
            <g transform="matrix(0.661793,0,-0.475664,0.409025,153.664,194.72)">
                <rect x="613" y="480" width="66" height="32" style="fill:rgb(0,15,0);"/>
            </g>
            <g transform="matrix(0.665738,0,-0.187239,0.409025,26.3248,152.182)">
                <rect x="613" y="480" width="66" height="32" style="fill:rgb(0,15,0);"/>
            </g>
            <g transform="matrix(0.694103,0,0,0.409025,-77.7782,109.643)">
                <rect x="613" y="480" width="66" height="32" style="fill:rgb(0,15,0);"/>
            </g>
            <g transform="matrix(0.694103,0,0,0.409025,-77.7782,67.1044)">
                <rect x="613" y="480" width="66" height="32" style="fill:rgb(0,15,0);"/>
            </g>
            <g transform="matrix(0.665738,0,0.187239,0.409025,-160.082,24.5659)">
                <rect x="613" y="480" width="66" height="32" style="fill:rgb(0,15,0);"/>
            </g>
            <g transform="matrix(0.661793,0,0.46157,0.409025,-310.979,-17.9727)">
                <rect x="613" y="480" width="66" height="32" style="fill:rgb(0,15,0);"/>
            </g>
            <g id="bottom_triangle" transform="matrix(0.394154,8.53383e-18,8.61437e-18,0.460153,104.852,347.302)">
                <path d="M502.221,164L557.23,180L447.212,180L502.221,164Z" style="fill:rgb(0,15,0);"/>
            </g>
            <g id="top_triangle" transform="matrix(0.394154,-8.08258e-18,8.08258e-18,-0.460153,104.852,235.034)">
                <path d="M502.221,164L557.23,180L447.212,180L502.221,164Z" style="fill:rgb(0,15,0);"/>
            </g>
        </g>
    </g>
</svg>
